<svg id="Capa_1" enable-background="new 0 0 512 512" height="512" viewBox="0 0 512 512" width="512" xmlns="http://www.w3.org/2000/svg"><g><path d="m388 132h-264c-11.046 0-20-8.954-20-20s8.954-20 20-20h264c11.046 0 20 8.954 20 20s-8.954 20-20 20zm20 84c0-11.046-8.954-20-20-20h-264c-11.046 0-20 8.954-20 20s8.954 20 20 20h264c11.046 0 20-8.954 20-20zm-132 104c0-11.046-8.954-20-20-20h-132c-11.046 0-20 8.954-20 20s8.954 20 20 20h132c11.046 0 20-8.954 20-20zm-5.858 186.142 74.142-74.142h147.716c11.046 0 20-8.954 20-20v-392c0-11.046-8.954-20-20-20h-472c-11.046 0-20 8.954-20 20v392c0 11.046 8.954 20 20 20h147.716l74.142 74.142c7.811 7.811 20.474 7.81 28.284 0zm-230.142-466.142h432v352h-136c-5.304 0-10.392 2.107-14.142 5.858l-65.858 65.858-65.858-65.858c-3.75-3.751-8.838-5.858-14.142-5.858h-136z"/></g></svg>